<?xml version="1.0" encoding="UTF-8" standalone="no"?>
<svg width="14px" height="16px" viewBox="0 0 14 16" version="1.1" xmlns="http://www.w3.org/2000/svg" xmlns:xlink="http://www.w3.org/1999/xlink" xmlns:sketch="http://www.bohemiancoding.com/sketch/ns">
    <!-- Generator: Sketch 3.5.1 (25234) - http://www.bohemiancoding.com/sketch -->
    <title>A Copy</title>
    <desc>Created with Sketch.</desc>
    <defs></defs>
    <g id="Page-1" stroke="none" stroke-width="1" fill="none" fill-rule="evenodd" sketch:type="MSPage">
        <g id="Merchant-Copy-2" sketch:type="MSArtboardGroup" transform="translate(-86.000000, -225.000000)" fill="#FFFFFF">
            <g id="buy-aircoin" sketch:type="MSLayerGroup" transform="translate(0.000000, 199.000000)">
                <g id="Bcoin" transform="translate(74.000000, 16.000000)" sketch:type="MSShapeGroup">
                    <path d="M25.08,24.08 C25.08,23.9 25.04,23.7 24.96,23.5 C24.3,21.94 21.7,14.98 20.42,11.38 C20.1,10.48 19.32,10 18.56,10 C17.84,10 17.12,10.42 16.8,11.34 C12.42,23.66 12.36,23.82 12.36,24.18 C12.36,24.8 12.94,25.18 13.5,25.18 C13.98,25.18 14.44,24.92 14.62,24.36 C14.92,23.4 15.38,21.96 15.88,20.38 C15.92,20.26 16.02,20.2 16.12,20.2 C16.54,20.18 17.88,20.18 19.08,20.18 C19.98,20.18 20.8,20.18 21.12,20.2 C21.24,20.2 21.3,20.26 21.34,20.38 C21.96,22.24 22.48,23.84 22.72,24.42 C22.92,24.94 23.4,25.16 23.86,25.16 C24.48,25.16 25.08,24.76 25.08,24.08 L25.08,24.08 Z M20.54,18 C20.54,18.06 20.5,18.08 20.38,18.08 C20.1,18.08 19.4,18.1 18.68,18.1 C17.98,18.1 17.24,18.08 16.84,18.08 C16.72,18.08 16.68,18.04 16.68,17.96 C16.68,17.78 17.98,14.04 18.28,13.24 C18.42,12.84 18.54,12.66 18.64,12.66 C18.76,12.66 18.86,12.86 18.98,13.22 C19.3,14.2 19.9,16.02 20.52,17.9 C20.54,17.94 20.54,17.98 20.54,18 L20.54,18 Z" id="A-Copy"></path>
                </g>
            </g>
        </g>
    </g>
</svg>