<?xml version="1.0" encoding="UTF-8" standalone="no"?>
<svg width="17px" height="22px" viewBox="0 0 17 22" version="1.1" xmlns="http://www.w3.org/2000/svg" xmlns:xlink="http://www.w3.org/1999/xlink" xmlns:sketch="http://www.bohemiancoding.com/sketch/ns">
    <!-- Generator: Sketch 3.5.1 (25234) - http://www.bohemiancoding.com/sketch -->
    <title>Path</title>
    <desc>Created with Sketch.</desc>
    <defs></defs>
    <g id="Page-1" stroke="none" stroke-width="1" fill="none" fill-rule="evenodd" sketch:type="MSPage">
        <g id="Merchant-Copy-2" sketch:type="MSArtboardGroup" transform="translate(-85.000000, -90.000000)" fill="#FFFFFF">
            <g id="buy-bitcoin" sketch:type="MSLayerGroup" transform="translate(0.000000, 65.000000)">
                <g id="Bcoin" transform="translate(75.000000, 17.000000)" sketch:type="MSShapeGroup">
                    <path d="M10,24.5434439 L12.5023697,25.1690363 C12.6645603,25.1922064 12.8962612,25.2501316 13.1974724,25.342812 C13.4986835,25.4354924 13.7187994,25.4934176 13.8578199,25.5165877 L13.0584518,28.6793049 L14.9699842,29.1658768 L15.7345972,26.0379147 C15.8736177,26.0842549 16.1169036,26.1479726 16.464455,26.2290679 C16.8120063,26.3101632 17.0784624,26.373881 17.2638231,26.4202212 L16.4992101,29.5481833 L18.4107425,30 L19.1753555,26.8372828 C20.2875197,27.0226435 21.2780411,27.1095313 22.1469194,27.0979463 C23.0157978,27.0863613 23.7804107,26.8488678 24.4407583,26.385466 C25.1011058,25.9220643 25.5934703,25.2153765 25.9178515,24.2654028 C26.6592944,22.1800948 26.0684571,20.6392838 24.1453397,19.64297 C25.535545,19.3417588 26.3464981,18.4149553 26.5781991,16.8625592 C26.8794102,14.8699316 25.6050553,13.4102159 22.7551343,12.4834123 L23.5545024,9.3206951 L21.64297,8.86887836 L20.878357,11.9273302 C20.6929963,11.88099 20.4265403,11.8172722 20.0789889,11.7361769 C19.7314376,11.6550816 19.4881517,11.5913639 19.3491311,11.5450237 L20.1137441,8.48657188 L18.2022117,8 L17.4375987,11.1279621 C17.0900474,11.0816219 16.6845708,10.9889415 16.221169,10.849921 L13.5797788,10.1895735 L13.093207,12.2401264 L14.4486572,12.5529226 C15.0974197,12.7151132 15.3986308,13.0858346 15.3522907,13.6650869 L14.4486572,17.2448657 C14.4949974,17.2448657 14.5645076,17.2680358 14.657188,17.314376 C14.6340179,17.2912059 14.5992628,17.2796209 14.5529226,17.2796209 C14.5065824,17.2796209 14.4718273,17.2680358 14.4486572,17.2448657 L13.1974724,22.2496051 C13.0816219,22.6666667 12.7919958,22.8172722 12.328594,22.7014218 L10.9383886,22.3538705 L10,24.5434439 L10,24.5434439 Z M16.3601896,23.7440758 L17.4028436,19.5387046 C17.4260137,19.5387046 17.6519221,19.5850447 18.0805687,19.6777251 C18.5092154,19.7704055 18.8335966,19.8515008 19.0537125,19.9210111 C19.2738283,19.9905213 19.5982096,20.0947867 20.0268562,20.2338073 C20.4555029,20.3728278 20.7856767,20.5234334 21.0173776,20.685624 C21.2490785,20.8478147 21.4923644,21.0389679 21.7472354,21.2590837 C22.0021064,21.4791996 22.1700895,21.7340706 22.2511848,22.0236967 C22.3322801,22.3133228 22.3264876,22.6319115 22.2338073,22.9794629 C22.164297,23.2343338 22.0600316,23.4544497 21.9210111,23.6398104 C21.7819905,23.8251711 21.6082148,23.9641917 21.399684,24.056872 C21.1911532,24.1495524 20.9768299,24.2306477 20.7567141,24.300158 C20.5365982,24.3696682 20.2701422,24.3986308 19.957346,24.3870458 C19.6445498,24.3754608 19.3723012,24.3580832 19.1406003,24.3349131 C18.9088994,24.311743 18.6308583,24.2654028 18.3064771,24.1958926 C17.9820959,24.1263823 17.7330174,24.0742496 17.5592417,24.0394945 C17.385466,24.0047393 17.1595577,23.9526066 16.8815166,23.8830964 C16.6034755,23.8135861 16.4296998,23.7672459 16.3601896,23.7440758 L16.3601896,23.7440758 Z M17.8894155,17.6271722 L18.8278041,13.8041074 C18.8973144,13.8272775 19.0421274,13.8620327 19.2622433,13.9083728 C19.4823591,13.954713 19.6735124,13.9952607 19.835703,14.0300158 C19.9978936,14.0647709 20.2064244,14.1226962 20.4612954,14.2037915 C20.7161664,14.2848868 20.9362823,14.3601896 21.121643,14.4296998 C21.3070037,14.4992101 21.5155345,14.597683 21.7472354,14.7251185 C21.9789363,14.852554 22.152712,14.9799895 22.2685624,15.107425 C22.3844128,15.2348605 22.5176409,15.3912586 22.6682464,15.5766193 C22.818852,15.76198 22.8883623,15.9531332 22.8767773,16.150079 C22.8651922,16.3470248 22.8478147,16.5729331 22.8246445,16.8278041 C22.7551343,17.1290153 22.6334913,17.3780937 22.4597156,17.5750395 C22.28594,17.7719853 22.0658241,17.9052133 21.7993681,17.9747235 C21.532912,18.0442338 21.2722485,18.0963665 21.0173776,18.1311216 C20.7625066,18.1658768 20.4555029,18.1542917 20.0963665,18.0963665 C19.7372301,18.0384413 19.4591891,17.9921011 19.2622433,17.957346 C19.0652975,17.9225908 18.7988415,17.8588731 18.4628752,17.7661927 C18.1269089,17.6735124 17.9357556,17.6271722 17.8894155,17.6271722 L17.8894155,17.6271722 Z" id="Path"></path>
                </g>
            </g>
        </g>
    </g>
</svg>